<svg width="180" height="187" viewBox="0 0 180 187" fill="none" xmlns="http://www.w3.org/2000/svg">
<rect width="180" height="186" transform="translate(0 0.275757)" fill="black"/>
<g filter="url(#filter0_d_189_69)">
<rect x="69.4102" y="73.0417" width="15.3945" height="7.97925" rx="2" fill="white"/>
<rect x="69.4102" y="92.9285" width="5.7422" height="12.2055" rx="2" fill="white"/>
<rect width="41.1793" height="2.42783" rx="1.21392" transform="matrix(-1 0 0 1 110.59 111.082)" fill="white"/>
<rect x="103.153" y="92.9285" width="7.4367" height="12.2055" rx="2" fill="white"/>
<rect x="90.8047" y="73.0417" width="19.7846" height="6.36297" rx="2" fill="white"/>
</g>
<rect x="69.4102" y="73.0417" width="15.3945" height="13.8867" rx="2" fill="url(#paint0_linear_189_69)"/>
<rect x="69.4102" y="92.9285" width="22.7147" height="12.2056" rx="2" fill="url(#paint1_linear_189_69)"/>
<rect width="41.1792" height="2.42783" rx="1.21392" transform="matrix(-1 0 0 1 110.59 111.082)" fill="url(#paint2_linear_189_69)"/>
<rect x="98.125" y="92.9285" width="12.4647" height="12.2056" rx="2" fill="url(#paint3_linear_189_69)"/>
<rect x="90.8047" y="73.0417" width="19.7849" height="13.8866" rx="2" fill="url(#paint4_linear_189_69)"/>
<defs>
<filter id="filter0_d_189_69" x="59.4102" y="63.0417" width="61.1797" height="60.4679" filterUnits="userSpaceOnUse" color-interpolation-filters="sRGB">
<feFlood flood-opacity="0" result="BackgroundImageFix"/>
<feColorMatrix in="SourceAlpha" type="matrix" values="0 0 0 0 0 0 0 0 0 0 0 0 0 0 0 0 0 0 127 0" result="hardAlpha"/>
<feOffset/>
<feGaussianBlur stdDeviation="5"/>
<feComposite in2="hardAlpha" operator="out"/>
<feColorMatrix type="matrix" values="0 0 0 0 1 0 0 0 0 1 0 0 0 0 1 0 0 0 1 0"/>
<feBlend mode="normal" in2="BackgroundImageFix" result="effect1_dropShadow_189_69"/>
<feBlend mode="normal" in="SourceGraphic" in2="effect1_dropShadow_189_69" result="shape"/>
</filter>
<linearGradient id="paint0_linear_189_69" x1="84.8047" y1="86.9284" x2="65.575" y2="86.9284" gradientUnits="userSpaceOnUse">
<stop offset="0.831461" stop-color="white"/>
<stop offset="1"/>
</linearGradient>
<linearGradient id="paint1_linear_189_69" x1="92.1248" y1="105.134" x2="67.3756" y2="105.134" gradientUnits="userSpaceOnUse">
<stop offset="0.941799" stop-color="white"/>
<stop offset="1"/>
</linearGradient>
<linearGradient id="paint2_linear_189_69" x1="41.1792" y1="2.42783" x2="-4.27427" y2="2.42783" gradientUnits="userSpaceOnUse">
<stop offset="0.916682" stop-color="white"/>
<stop offset="1"/>
</linearGradient>
<linearGradient id="paint3_linear_189_69" x1="110.59" y1="105.134" x2="96.6642" y2="105.134" gradientUnits="userSpaceOnUse">
<stop offset="0.913802" stop-color="white"/>
<stop offset="1"/>
</linearGradient>
<linearGradient id="paint4_linear_189_69" x1="110.59" y1="86.9284" x2="88.1417" y2="86.9284" gradientUnits="userSpaceOnUse">
<stop offset="0.909096" stop-color="white"/>
<stop offset="1"/>
</linearGradient>
</defs>
</svg>
