<svg width="180" height="187" viewBox="0 0 180 187" fill="none" xmlns="http://www.w3.org/2000/svg">
<rect width="180" height="186" transform="translate(0 0.150879)" fill="black"/>
<path d="M107.752 98.5763L105.125 99.0151C102.723 99.4163 100.801 101.23 100.262 103.605L98.7119 110.434L97.1617 103.605C96.6225 101.23 94.7011 99.4163 92.2989 99.0151L89.672 98.5764L92.931 98.0321C95.0036 97.686 96.7441 96.2808 97.5194 94.3278L98.7119 91.3236L99.9044 94.3277C100.68 96.2808 102.42 97.686 104.493 98.0321L107.752 98.5763Z" fill="white"/>
<g filter="url(#filter0_d_189_23)">
<path d="M64.6815 94.4048C65.4832 92.5973 67.2747 91.432 69.2521 91.432H102.606C104.583 91.432 106.375 92.5973 107.177 94.4048L112.741 106.951C114.208 110.257 111.787 113.978 108.171 113.978H63.6874C60.0708 113.978 57.6505 110.257 59.1168 106.951L64.6815 94.4048Z" fill="url(#paint0_linear_189_23)"/>
</g>
<circle cx="85.9286" cy="92.3236" r="7.29801" transform="rotate(-180 85.9286 92.3236)" fill="url(#paint1_radial_189_23)"/>
<path d="M107.752 74.2891L105.123 73.8502C102.721 73.4492 100.8 71.6358 100.26 69.2608L98.7096 62.4326L97.159 69.2608C96.6197 71.6358 94.6982 73.4492 92.296 73.8502L89.6673 74.2891L92.9283 74.8335C95.0008 75.1795 96.7413 76.5844 97.5167 78.5373L98.7096 81.5414L99.9025 78.5373C100.678 76.5844 102.418 75.1795 104.491 74.8335L107.752 74.2891Z" fill="black"/>
<defs>
<filter id="filter0_d_189_23" x="48.6816" y="81.432" width="74.4951" height="42.5461" filterUnits="userSpaceOnUse" color-interpolation-filters="sRGB">
<feFlood flood-opacity="0" result="BackgroundImageFix"/>
<feColorMatrix in="SourceAlpha" type="matrix" values="0 0 0 0 0 0 0 0 0 0 0 0 0 0 0 0 0 0 127 0" result="hardAlpha"/>
<feOffset/>
<feGaussianBlur stdDeviation="5"/>
<feComposite in2="hardAlpha" operator="out"/>
<feColorMatrix type="matrix" values="0 0 0 0 1 0 0 0 0 1 0 0 0 0 1 0 0 0 1 0"/>
<feBlend mode="normal" in2="BackgroundImageFix" result="effect1_dropShadow_189_23"/>
<feBlend mode="normal" in="SourceGraphic" in2="effect1_dropShadow_189_23" result="shape"/>
</filter>
<linearGradient id="paint0_linear_189_23" x1="107.722" y1="82.2109" x2="53.0727" y2="120.955" gradientUnits="userSpaceOnUse">
<stop offset="0.0212538" stop-color="white"/>
<stop offset="0.0336754" stop-color="white"/>
<stop offset="0.0615543"/>
<stop offset="0.0884996" stop-color="white"/>
</linearGradient>
<radialGradient id="paint1_radial_189_23" cx="0" cy="0" r="1" gradientUnits="userSpaceOnUse" gradientTransform="translate(81.2145 98.3167) rotate(-45) scale(12.1888 10.7795)">
<stop/>
<stop offset="1" stop-color="white"/>
</radialGradient>
</defs>
</svg>
