<svg width="180" height="187" viewBox="0 0 180 187" fill="none" xmlns="http://www.w3.org/2000/svg">
<rect width="180" height="186" transform="translate(0 0.150879)" fill="black"/>
<path d="M107.753 79.5759L105.124 80.0148C102.722 80.4158 100.801 82.2292 100.261 84.6042L98.7106 91.4324L97.16 84.6042C96.6206 82.2292 94.6992 80.4158 92.297 80.0148L89.6683 79.5759L92.9293 79.0315C95.0017 78.6855 96.7422 77.2806 97.5177 75.3277L98.7106 72.3236L99.9034 75.3277C100.679 77.2806 102.419 78.6855 104.492 79.0315L107.753 79.5759Z" fill="white"/>
<path d="M64.6815 94.4048C65.4832 92.5973 67.2747 91.432 69.2521 91.432H102.606C104.583 91.432 106.375 92.5973 107.177 94.4048L112.741 106.951C114.208 110.257 111.787 113.978 108.171 113.978H63.6874C60.0708 113.978 57.6505 110.257 59.1168 106.951L64.6815 94.4048Z" fill="url(#paint0_linear_189_2)"/>
<circle cx="80.1004" cy="91.1555" r="7.29801" transform="rotate(-180 80.1004 91.1555)" fill="url(#paint1_radial_189_2)"/>
<path d="M107.753 103.289L105.124 102.85C102.722 102.449 100.801 100.636 100.261 98.2608L98.7106 91.4326L97.16 98.2608C96.6206 100.636 94.6992 102.449 92.297 102.85L89.6683 103.289L92.9293 103.833C95.0017 104.179 96.7422 105.584 97.5177 107.537L98.7106 110.541L99.9034 107.537C100.679 105.584 102.419 104.179 104.492 103.833L107.753 103.289Z" fill="black"/>
<defs>
<linearGradient id="paint0_linear_189_2" x1="107.722" y1="82.2109" x2="53.0727" y2="120.955" gradientUnits="userSpaceOnUse">
<stop offset="0.0612866" stop-color="white"/>
<stop offset="0.593575" stop-color="white"/>
<stop offset="0.757407"/>
<stop offset="0.833605" stop-color="white"/>
</linearGradient>
<radialGradient id="paint1_radial_189_2" cx="0" cy="0" r="1" gradientUnits="userSpaceOnUse" gradientTransform="translate(75.3864 97.1485) rotate(-45) scale(12.1888 10.7795)">
<stop offset="0.177452" stop-color="white"/>
<stop offset="1"/>
</radialGradient>
</defs>
</svg>
