<svg width="180" height="187" viewBox="0 0 180 187" fill="none" xmlns="http://www.w3.org/2000/svg">
<rect width="180" height="186" transform="translate(0 0.275757)" fill="black"/>
<path d="M79.4727 74.6582C79.4727 74.6582 84.1848 68.7326 89.9976 68.7326C95.8103 68.7326 100.522 74.6582 100.522 74.6582C100.522 74.6582 95.8103 80.5837 89.9976 80.5837C84.1848 80.5837 79.4727 74.6582 79.4727 74.6582Z" fill="url(#paint0_linear_189_81)"/>
<path d="M68.9538 92.8867C68.9538 92.8867 66.1782 85.8431 69.0845 80.8091C71.9909 75.7751 79.4787 74.6571 79.4787 74.6571C79.4787 74.6571 82.2543 81.7007 79.3479 86.7347C76.4415 91.7687 68.9538 92.8867 68.9538 92.8867Z" fill="url(#paint1_linear_189_81)"/>
<path d="M68.9538 92.8866C68.9538 92.8866 66.1782 99.9303 69.0845 104.964C71.9909 109.998 79.4787 111.116 79.4787 111.116C79.4787 111.116 82.2543 104.073 79.3479 99.0387C76.4415 94.0047 68.9538 92.8866 68.9538 92.8866Z" fill="url(#paint2_linear_189_81)"/>
<path d="M111.046 92.8838C111.046 92.8838 113.822 85.8402 110.915 80.8062C108.009 75.7722 100.521 74.6541 100.521 74.6541C100.521 74.6541 97.7457 81.6978 100.652 86.7317C103.558 91.7657 111.046 92.8838 111.046 92.8838Z" fill="url(#paint3_linear_189_81)"/>
<path d="M111.047 92.8842C111.047 92.8842 113.823 99.9278 110.916 104.962C108.01 109.996 100.522 111.114 100.522 111.114C100.522 111.114 97.7467 104.07 100.653 99.0363C103.559 94.0023 111.047 92.8842 111.047 92.8842Z" fill="url(#paint4_linear_189_81)"/>
<path d="M89.7131 82.1389L90.6459 87.2022C91.0968 89.6499 93.012 91.565 95.4596 92.0159L100.523 92.9487L95.9565 93.7899C93.2699 94.2849 91.2568 96.5321 91.0592 99.2567L89.7131 117.819L88.367 99.2567C88.1694 96.5321 86.1563 94.2849 83.4698 93.7899L78.9033 92.9487L83.9667 92.0159C86.4143 91.565 88.3294 89.6499 88.7803 87.2022L89.7131 82.1389Z" fill="white"/>
<defs>
<linearGradient id="paint0_linear_189_81" x1="90.1766" y1="69.3342" x2="89.9729" y2="92.8433" gradientUnits="userSpaceOnUse">
<stop offset="0.22815" stop-color="white"/>
<stop offset="0.44496"/>
</linearGradient>
<linearGradient id="paint1_linear_189_81" x1="69.695" y1="80.9549" x2="89.9527" y2="92.8858" gradientUnits="userSpaceOnUse">
<stop offset="0.22815" stop-color="white"/>
<stop offset="0.44496"/>
</linearGradient>
<linearGradient id="paint2_linear_189_81" x1="69.695" y1="104.818" x2="89.9527" y2="92.8876" gradientUnits="userSpaceOnUse">
<stop offset="0.22815" stop-color="white"/>
<stop offset="0.44496"/>
</linearGradient>
<linearGradient id="paint3_linear_189_81" x1="110.305" y1="80.952" x2="90.0473" y2="92.8828" gradientUnits="userSpaceOnUse">
<stop offset="0.22815" stop-color="white"/>
<stop offset="0.44496"/>
</linearGradient>
<linearGradient id="paint4_linear_189_81" x1="110.306" y1="104.816" x2="90.0483" y2="92.8852" gradientUnits="userSpaceOnUse">
<stop offset="0.22815" stop-color="white"/>
<stop offset="0.44496"/>
</linearGradient>
</defs>
</svg>
