<svg width="53" height="50" viewBox="0 0 53 50" fill="none" xmlns="http://www.w3.org/2000/svg">
<path d="M16.1689 6.8337C16.1689 6.8337 20.8811 0.908147 26.6938 0.908148C32.5066 0.908148 37.2188 6.8337 37.2188 6.8337C37.2188 6.8337 32.5066 12.7592 26.6938 12.7592C20.8811 12.7592 16.1689 6.8337 16.1689 6.8337Z" fill="url(#paint0_linear_104_1530)"/>
<path d="M5.64957 25.0623C5.64957 25.0623 2.87397 18.0186 5.78035 12.9847C8.68672 7.95068 16.1745 6.83261 16.1745 6.83261C16.1745 6.83261 18.9501 13.8762 16.0437 18.9102C13.1373 23.9442 5.64957 25.0623 5.64957 25.0623Z" fill="url(#paint1_linear_104_1530)"/>
<path d="M5.65006 25.0622C5.65006 25.0622 2.87446 32.1058 5.78083 37.1398C8.68721 42.1738 16.175 43.2918 16.175 43.2918C16.175 43.2918 18.9506 36.2482 16.0442 31.2142C13.1378 26.1803 5.65006 25.0622 5.65006 25.0622Z" fill="url(#paint2_linear_104_1530)"/>
<path d="M47.7425 25.0593C47.7425 25.0593 50.5181 18.0157 47.6117 12.9817C44.7054 7.94775 37.2176 6.82968 37.2176 6.82968C37.2176 6.82968 34.442 13.8733 37.3484 18.9073C40.2548 23.9413 47.7425 25.0593 47.7425 25.0593Z" fill="url(#paint3_linear_104_1530)"/>
<path d="M47.7425 25.0597C47.7425 25.0597 50.5181 32.1034 47.6117 37.1373C44.7054 42.1713 37.2176 43.2894 37.2176 43.2894C37.2176 43.2894 34.442 36.2458 37.3484 31.2118C40.2548 26.1778 47.7425 25.0597 47.7425 25.0597Z" fill="url(#paint4_linear_104_1530)"/>
<path d="M26.4089 14.3144L27.3417 19.3778C27.7926 21.8254 29.7078 23.7405 32.1554 24.1915L37.2187 25.1242L32.6523 25.9655C29.9657 26.4604 27.9526 28.7076 27.755 31.4322L26.4089 49.9943L25.0628 31.4322C24.8652 28.7076 22.8521 26.4604 20.1656 25.9655L15.5991 25.1242L20.6625 24.1915C23.1101 23.7405 25.0252 21.8254 25.4762 19.3778L26.4089 14.3144Z" fill="white"/>
<defs>
<linearGradient id="paint0_linear_104_1530" x1="26.8729" y1="1.50972" x2="26.6692" y2="25.0188" gradientUnits="userSpaceOnUse">
<stop offset="0.22815" stop-color="white"/>
<stop offset="0.44496"/>
</linearGradient>
<linearGradient id="paint1_linear_104_1530" x1="6.39083" y1="13.1304" x2="26.6485" y2="25.0613" gradientUnits="userSpaceOnUse">
<stop offset="0.22815" stop-color="white"/>
<stop offset="0.44496"/>
</linearGradient>
<linearGradient id="paint2_linear_104_1530" x1="6.39132" y1="36.994" x2="26.649" y2="25.0631" gradientUnits="userSpaceOnUse">
<stop offset="0.22815" stop-color="white"/>
<stop offset="0.44496"/>
</linearGradient>
<linearGradient id="paint3_linear_104_1530" x1="47.0013" y1="13.1275" x2="26.7436" y2="25.0584" gradientUnits="userSpaceOnUse">
<stop offset="0.22815" stop-color="white"/>
<stop offset="0.44496"/>
</linearGradient>
<linearGradient id="paint4_linear_104_1530" x1="47.0013" y1="36.9916" x2="26.7436" y2="25.0607" gradientUnits="userSpaceOnUse">
<stop offset="0.22815" stop-color="white"/>
<stop offset="0.44496"/>
</linearGradient>
</defs>
</svg>
