<svg width="61" height="43" viewBox="0 0 61 43" fill="none" xmlns="http://www.w3.org/2000/svg">
<path d="M9.19953 22.8667C10.0012 21.0592 11.7928 19.8939 13.7701 19.8939H47.1241C49.1014 19.8939 50.893 21.0592 51.6947 22.8667L57.2593 35.4128C58.7257 38.7189 56.3054 42.44 52.6887 42.44H8.20549C4.58884 42.44 2.16853 38.7189 3.63489 35.4128L9.19953 22.8667Z" fill="url(#paint0_linear_104_1515)"/>
<path d="M52.2705 31.751L49.6417 31.3121C47.2395 30.9111 45.3181 29.0977 44.7788 26.7227L43.2281 19.8945L41.6775 26.7227C41.1382 29.0977 39.2167 30.911 36.8145 31.3121L34.1859 31.7509L37.4468 32.2954C39.5193 32.6414 41.2598 34.0463 42.0353 35.9991L43.2281 39.0033L44.421 35.9992C45.1965 34.0463 46.937 32.6414 49.0095 32.2954L52.2705 31.751Z" fill="black"/>
<path d="M52.2705 8.03776L49.6417 8.47665C47.2395 8.8777 45.3181 10.6911 44.7788 13.066L43.2281 19.8943L41.6775 13.0661C41.1382 10.6911 39.2167 8.87771 36.8145 8.47666L34.1859 8.03781L37.4468 7.4934C39.5193 7.1474 41.2598 5.74247 42.0353 3.78962L43.2281 0.785492L44.421 3.78958C45.1965 5.74246 46.937 7.14739 49.0095 7.49337L52.2705 8.03776Z" fill="white"/>
<circle cx="24.6185" cy="19.6174" r="7.29801" transform="rotate(-180 24.6185 19.6174)" fill="url(#paint1_radial_104_1515)"/>
<defs>
<linearGradient id="paint0_linear_104_1515" x1="44.5995" y1="15.1452" x2="5.38122" y2="42.44" gradientUnits="userSpaceOnUse">
<stop offset="0.24773" stop-color="white"/>
<stop offset="0.642743" stop-color="white"/>
<stop offset="0.854167"/>
<stop offset="0.942708" stop-color="white"/>
</linearGradient>
<radialGradient id="paint1_radial_104_1515" cx="0" cy="0" r="1" gradientUnits="userSpaceOnUse" gradientTransform="translate(19.9044 25.6104) rotate(-45) scale(12.1888 10.7795)">
<stop offset="0.177452" stop-color="white"/>
<stop offset="1"/>
</radialGradient>
</defs>
</svg>
